#!OML:ASF F:\VICON\USERDATA\INSTALL\rory3\rory3.ASF
:FULLY-SPECIFIED
:DEGREES
205
root 4.50301 16.0255 -3.93064 5.39534 65.9835 -3.2558
lowerback -10.3386 -4.212 -3.94259
upperback -9.13775 -4.80397 8.6164
thorax -2.80619 -1.81567 11.0749
lowerneck 0.652165 -14.088 -8.11614
upperneck 33.5862 -18.3312 -1.75949
head 11.509 -9.15102 -1.02806
rclavicle 3.97569e-014 -2.8625e-014
rhumerus 72.8041 -0.9119 -8.39523
rradius 67.9869
rwrist 11.6982
rhand 3.43624 -3.94245
rfingers 7.12502
rthumb 28.8773 -31.7272
lclavicle 3.97569e-014 -2.8625e-014
lhumerus 90.3676 12.3821 22.4322
lradius 58.1855
lwrist 13.1197
lhand 29.0446 23.9912
lfingers 7.12502
lthumb 52.846 43.5806
rfemur -50.7993 -4.30066 30.5302
rtibia 56.5599
rfoot -19.1451 -30.025
rtoes 29.3173
lfemur -29.3539 -13.3907 -26.0748
ltibia 54.459
lfoot -15.4267 -19.3531
ltoes -17.2946
206
root 4.45823 16.0412 -3.96671 6.38769 64.4212 -2.42769
lowerback -10.1892 -3.89198 -3.96339
upperback -9.10097 -4.39784 8.29324
thorax -2.95752 -1.61898 10.7755
lowerneck 0.131519 -13.7996 -7.73546
upperneck 33.7937 -17.9824 -1.6224
head 11.6446 -8.92944 -1.04535
rclavicle -2.38542e-015 -3.33958e-014
rhumerus 72.3195 0.451663 -10.0954
rradius 68.5704
rwrist 9.26738
rhand 3.55812 -4.11522
rfingers 7.12502
rthumb 28.9937 -31.8801
lclavicle -2.38542e-015 -3.33958e-014
lhumerus 90.7331 10.9092 23.5822
lradius 58.5169
lwrist 15.3059
lhand 29.8916 24.7233
lfingers 7.12502
lthumb 53.6095 43.822
rfemur -51.4896 -4.25369 30.1039
rtibia 56.9319
rfoot -16.3274 -28.2031
rtoes 21.8282
lfemur -28.9033 -15.1112 -26.3878
ltibia 53.2038
lfoot -16.875 -17.4337
ltoes -19.2094
207
root 4.41942 15.9829 -3.99968 7.07522 62.7372 -1.98164
lowerback -10.3157 -3.94654 -4.08843
upperback -8.84916 -4.49526 8.40181
thorax -2.58119 -1.69521 10.9406
lowerneck 0.369776 -13.3538 -7.88037
upperneck 33.3585 -17.4204 -1.3366
head 11.4474 -8.686 -0.822486
rclavicle 1.51076e-014 5.88403e-014
rhumerus 72.646 1.78414 -11.926
rradius 69.9567
rwrist 6.41622
rhand 2.55321 -4.52576
rfingers 7.12502
rthumb 28.0335 -32.4516
lclavicle 1.51076e-014 5.88403e-014
lhumerus 90.0111 10.167 24.342
lradius 58.7534
lwrist 17.583
lhand 29.42 25.792
lfingers 7.12502
lthumb 53.1848 45.1667
rfemur -52.8795 -7.64782 31.2201
rtibia 57.5441
rfoot -10.777 -23.5309
rtoes 17.2382
lfemur -28.836 -16.2026 -26.6528
ltibia 52.4062
lfoot -18.4898 -15.3999
ltoes -22.2171
208
root 4.37402 16.0098 -4.03754 7.16397 60.9336 -2.10762
lowerback -10.4528 -4.32686 -4.27474
upperback -8.29795 -5.04494 9.04488
thorax -1.73081 -2.02423 11.6779
lowerneck 0.602251 -12.6279 -8.48225
upperneck 32.3559 -16.3893 -1.12214
head 11.0466 -8.30449 -0.489551
rclavicle 1.74931e-014 -5.725e-014
rhumerus 74.7923 3.37377 -15.2029
rradius 72.8821
rwrist 4.3314
rhand 2.873 -5.78245
rfingers 7.12502
rthumb 28.3392 -33.6579
lclavicle 1.74931e-014 -5.725e-014
lhumerus 88.4983 10.1804 25.1984
lradius 58.568
lwrist 19.9799
lhand 28.0651 26.5726
lfingers 7.12502
lthumb 51.9592 46.7025
rfemur -53.1897 -6.96237 30.9637
rtibia 57.5093
rfoot -8.45587 -20.7607
rtoes 16.5249
lfemur -28.427 -16.8443 -26.5943
ltibia 51.3243
lfoot -20.067 -12.8783
ltoes -25.459
209
root 4.32471 16.04 -4.06781 6.89873 59.092 -2.43779
lowerback -10.1707 -3.85293 -3.84886
upperback -8.08851 -4.47259 8.70586
thorax -1.84303 -1.76745 11.1134
lowerneck 1.72082 -12.6061 -7.70916
upperneck 31.4153 -16.53 -0.910262
head 10.4164 -8.29981 -0.409108
rclavicle -4.92986e-014 4.77083e-014
rhumerus 73.6747 5.06585 -17.5654
rradius 69.2491
rwrist 1.24196
rhand -2.10423 -0.138554
rfingers 7.12502
rthumb 23.5734 -28.7137
lclavicle -4.92986e-014 4.77083e-014
lhumerus 89.0134 8.38066 27.0026
lradius 58.3714
lwrist 21.8873
lhand 27.9371 26.0255
lfingers 7.12502
lthumb 51.8431 46.2239
rfemur -53.0714 -5.4631 30.2678
rtibia 57.031
rfoot -6.21632 -17.7154
rtoes 13.0951
lfemur -27.9473 -17.0544 -26.5628
ltibia 50.4262
lfoot -21.7736 -9.34126
ltoes -30.1325
210
root 4.27271 16.0634 -4.0962 6.57618 57.2207 -2.77099
lowerback -9.73804 -3.59369 -3.43559
upperback -7.86419 -4.1884 8.49034
thorax -1.93953 -1.65734 10.667
lowerneck 1.44737 -12.1782 -6.88793
upperneck 31.3446 -15.9266 -1.10668
head 10.3072 -7.96393 -0.543635
rclavicle 1.19271e-015 -1.27222e-014
rhumerus 73.6714 6.71588 -21.0977
rradius 67.9427
rwrist -3.23505
rhand -3.55929 4.82517
rfingers 7.12502
rthumb 22.1771 -23.9227
lclavicle 1.19271e-015 -1.27222e-014
lhumerus 88.812 6.81114 28.8609
lradius 58.0493
lwrist 23.6355
lhand 28.8389 25.1096
lfingers 7.12502
lthumb 52.6601 44.8149
rfemur -52.7194 -3.50883 29.2664
rtibia 56.0229
rfoot -4.18406 -14.3005
rtoes 4.57031
lfemur -27.4621 -16.7552 -26.6072
ltibia 49.4127
lfoot -22.661 -6.76195
ltoes -31.5244
211
root 4.22363 16.0934 -4.15574 5.69645 55.4048 -3.91028
lowerback -9.36277 -3.31124 -2.42352
upperback -7.66549 -3.89487 8.42891
thorax -2.05406 -1.55536 10.0361
lowerneck 1.39959 -11.7087 -6.10216
upperneck 31.179 -15.2542 -1.35602
head 10.1258 -7.60794 -0.667959
rclavicle -3.53837e-014 -8.5875e-014
rhumerus 73.8893 8.14592 -24.5581
rradius 67.4872
rwrist -9.78545
rhand -1.9658 7.72915
rfingers 7.12502
rthumb 23.7062 -20.8289
lclavicle -3.53837e-014 -8.5875e-014
lhumerus 88.4445 5.3744 30.9367
lradius 57.6948
lwrist 26.1499
lhand 29.505 25.1794
lfingers 7.12502
lthumb 53.2614 44.5048
rfemur -52.4866 -2.20185 28.9048
rtibia 54.717
rfoot -2.38572 -10.2923
rtoes 6.95877
lfemur -27.0078 -16.8985 -25.8747
ltibia 48.656
lfoot -22.8468 -7.29228
ltoes -20.29
212
root 4.15994 16.0971 -4.16479 6.24006 53.2466 -3.5975
lowerback -9.37446 -2.90974 -2.81666
upperback -7.5337 -3.36278 8.09282
thorax -2.00748 -1.29172 9.9416
lowerneck 2.07283 -11.6651 -5.68256
upperneck 30.7871 -15.3895 -0.817278
head 9.86821 -7.59162 -0.495937
rclavicle -1.13705e-013 3.97569e-014
rhumerus 73.0216 9.43521 -28.1208
rradius 67.1441
rwrist -16.6123
rhand 1.09779 9.54412
rfingers 7.12502
rthumb 26.6414 -18.6013
lclavicle -1.13705e-013 3.97569e-014
lhumerus 88.4154 3.52116 33.3741
lradius 57.3968
lwrist 29.5996
lhand 29.9763 26.0269
lfingers 7.12502
lthumb 53.6856 45.0753
rfemur -52.7049 0.247703 27.4265
rtibia 53.3771
rfoot -0.390009 -5.60368
rtoes -5.60311
lfemur -26.9257 -16.2512 -26.0543
ltibia 47.8066
lfoot -23.7381 -5.38807
ltoes -18.0972
213
root 4.09926 16.0972 -4.18626 6.55237 51.4547 -3.368
lowerback -8.78008 -3.12465 -3.01461
upperback -7.15112 -3.68245 8.25489
thorax -1.84621 -1.47468 10.2195
lowerneck 0.372745 -10.949 -5.29896
upperneck 31.0986 -14.1951 -1.53967
head 10.1563 -7.06968 -0.816014
rclavicle -1.145e-013 -8.5875e-014
rhumerus 73.7794 11.1138 -31.6618
rradius 66.6082
rwrist -23.3441
rhand -0.402239 5.55265
rfingers 7.12502
rthumb 25.205 -22.8029
lclavicle -1.145e-013 -8.5875e-014
lhumerus 87.0281 3.0439 35.6825
lradius 56.9001
lwrist 33.2741
lhand 30.0471 26.6009
lfingers 7.12502
lthumb 53.7493 45.6071
rfemur -52.7241 1.9596 26.2133
rtibia 52.074
rfoot 0.0467319 -3.13693
rtoes -8.22428
lfemur -26.7794 -15.391 -26.4997
ltibia 46.9616
lfoot -24.8259 -1.52872
ltoes -24.5422
